<svg width="50" height="50" viewBox="0 0 50 50" fill="none" xmlns="http://www.w3.org/2000/svg">
<path d="M37.8103 9.24081C37.2333 9.24081 36.6693 9.41189 36.1896 9.73242C35.7099 10.0529 35.3361 10.5085 35.1153 11.0415C34.8945 11.5745 34.8367 12.1611 34.9493 12.7269C35.0618 13.2928 35.3397 13.8125 35.7476 14.2205C36.1556 14.6284 36.6753 14.9062 37.2412 15.0188C37.807 15.1313 38.3935 15.0736 38.9265 14.8528C39.4596 14.632 39.9151 14.2581 40.2357 13.7784C40.5562 13.2987 40.7273 12.7348 40.7273 12.1578C40.7273 11.3842 40.4199 10.6422 39.8729 10.0952C39.3258 9.54814 38.5839 9.24081 37.8103 9.24081V9.24081ZM48.9922 15.1235C48.9449 13.1066 48.5671 11.1111 47.874 9.2165C47.2559 7.59545 46.2939 6.12757 45.0542 4.9139C43.8505 3.66791 42.3792 2.71198 40.7516 2.11843C38.862 1.40415 36.8643 1.01776 34.8446 0.975929C32.2679 0.830078 31.4414 0.830078 24.8295 0.830078C18.2176 0.830078 17.3911 0.830078 14.8144 0.975929C12.7948 1.01776 10.7971 1.40415 8.90748 2.11843C7.28289 2.71799 5.81285 3.6731 4.60488 4.9139C3.35889 6.1176 2.40296 7.5889 1.80941 9.2165C1.09513 11.1061 0.708743 13.1038 0.666908 15.1235C0.521057 17.7002 0.521057 18.5266 0.521057 25.1385C0.521057 31.7505 0.521057 32.5769 0.666908 35.1536C0.708743 37.1733 1.09513 39.171 1.80941 41.0606C2.40296 42.6882 3.35889 44.1595 4.60488 45.3632C5.81285 46.604 7.28289 47.5591 8.90748 48.1587C10.7971 48.8729 12.7948 49.2593 14.8144 49.3012C17.3911 49.447 18.2176 49.447 24.8295 49.447C31.4414 49.447 32.2679 49.447 34.8446 49.3012C36.8643 49.2593 38.862 48.8729 40.7516 48.1587C42.3792 47.5651 43.8505 46.6092 45.0542 45.3632C46.2994 44.154 47.2622 42.6849 47.874 41.0606C48.5671 39.166 48.9449 37.1705 48.9922 35.1536C48.9922 32.5769 49.138 31.7505 49.138 25.1385C49.138 18.5266 49.138 17.7002 48.9922 15.1235V15.1235ZM44.6166 34.8619C44.5989 36.405 44.3195 37.9338 43.7901 39.3833C43.402 40.4412 42.7786 41.3971 41.967 42.1788C41.1785 42.9822 40.2246 43.6043 39.1715 44.0019C37.722 44.5312 36.1932 44.8107 34.6502 44.8284C32.2193 44.95 31.3199 44.9743 24.9268 44.9743C18.5336 44.9743 17.6342 44.9743 15.2034 44.8284C13.6012 44.8584 12.0058 44.6117 10.4875 44.0992C9.48063 43.6812 8.57046 43.0607 7.8136 42.276C7.00677 41.4951 6.39117 40.5384 6.01477 39.4805C5.4213 38.0103 5.09213 36.4467 5.04243 34.8619C5.04243 32.4311 4.89658 31.5317 4.89658 25.1385C4.89658 18.7454 4.89658 17.846 5.04243 15.4152C5.05333 13.8377 5.34131 12.2744 5.89323 10.7966C6.32117 9.77052 6.97803 8.85591 7.8136 8.12262C8.55212 7.28682 9.46484 6.62302 10.4875 6.17794C11.9693 5.64326 13.5309 5.3638 15.1061 5.35145C17.537 5.35145 18.4364 5.2056 24.8295 5.2056C31.2227 5.2056 32.1221 5.2056 34.5529 5.35145C36.0959 5.36915 37.6248 5.64862 39.0743 6.17794C40.1789 6.58791 41.1704 7.25443 41.967 8.12262C42.7636 8.86932 43.386 9.78224 43.7901 10.7966C44.3304 12.2768 44.61 13.8394 44.6166 15.4152C44.7382 17.846 44.7625 18.7454 44.7625 25.1385C44.7625 31.5317 44.7382 32.4311 44.6166 34.8619ZM24.8295 12.6683C22.3642 12.6731 19.9556 13.4086 17.9081 14.7817C15.8605 16.1549 14.266 18.1042 13.3259 20.3832C12.3858 22.6623 12.1423 25.1689 12.6262 27.5862C13.1101 30.0036 14.2997 32.2233 16.0446 33.9649C17.7896 35.7065 20.0116 36.8917 22.4299 37.3709C24.8483 37.8501 27.3544 37.6018 29.6316 36.6572C31.9088 35.7127 33.855 34.1143 35.2241 32.0641C36.5933 30.0139 37.3241 27.6039 37.3241 25.1385C37.3273 23.498 37.0061 21.873 36.3791 20.357C35.752 18.841 34.8314 17.4639 33.6702 16.305C32.509 15.146 31.1302 14.2281 29.6129 13.604C28.0957 12.9799 26.4701 12.6619 24.8295 12.6683V12.6683ZM24.8295 33.2333C23.2285 33.2333 21.6635 32.7585 20.3323 31.8691C19.0012 30.9796 17.9637 29.7154 17.351 28.2363C16.7383 26.7571 16.578 25.1296 16.8903 23.5593C17.2027 21.9891 17.9736 20.5468 19.1057 19.4147C20.2378 18.2827 21.6801 17.5117 23.2503 17.1994C24.8205 16.887 26.4481 17.0473 27.9272 17.66C29.4064 18.2727 30.6706 19.3102 31.56 20.6414C32.4495 21.9725 32.9242 23.5376 32.9242 25.1385C32.9242 26.2016 32.7149 27.2542 32.3081 28.2363C31.9013 29.2184 31.305 30.1107 30.5534 30.8624C29.8017 31.614 28.9093 32.2103 27.9272 32.6171C26.9451 33.0239 25.8925 33.2333 24.8295 33.2333V33.2333Z" fill="black"/>
</svg>
