<svg width="50" height="49" viewBox="0 0 50 49" fill="none" xmlns="http://www.w3.org/2000/svg">
<path d="M41.9217 41.0374H34.7998V29.8993C34.7998 27.2434 34.7523 23.8243 31.0957 23.8243C27.3863 23.8243 26.8187 26.7182 26.8187 29.706V41.0366H19.6969V18.1324H26.5338V21.2625H26.6296C27.3138 20.0942 28.3025 19.1331 29.4905 18.4815C30.6784 17.83 32.0211 17.5124 33.3754 17.5625C40.5939 17.5625 41.9247 22.304 41.9247 28.4724L41.9217 41.0374ZM11.6608 15.0017C9.37815 15.002 7.5274 13.1544 7.52702 10.875C7.52665 8.59555 9.37665 6.74736 11.6593 6.74698C13.9419 6.74642 15.7926 8.59405 15.793 10.8735C15.7932 11.9681 15.3579 13.018 14.583 13.7922C13.8081 14.5664 12.7569 15.0014 11.6608 15.0017ZM15.2218 41.0375H8.09237V18.1324H15.2216V41.0374L15.2218 41.0375ZM45.4723 0.141921H4.51366C2.57785 0.120171 0.990333 1.66873 0.966675 3.60186V44.6743C0.989582 46.6084 2.57691 48.1584 4.51347 48.1382H45.4723C47.413 48.1622 49.0065 46.6121 49.0333 44.6743V3.59867C49.0057 1.6618 47.412 0.113421 45.4723 0.138734" fill="black"/>
</svg>
