<svg width="248" height="249" viewBox="0 0 248 249" fill="none" xmlns="http://www.w3.org/2000/svg">
<path d="M211.13 36.08C187.9 12.83 157 0.02 124.08 0C56.26 0 1.06 55.18 1.03 123.01C1.03 144.68 6.69 165.85 17.46 184.51L0 248.25L65.24 231.14C83.28 240.96 103.49 246.11 124.03 246.11H124.09C191.9 246.11 247.11 190.93 247.14 123.1C247.15 90.24 234.36 59.33 211.13 36.08ZM186.46 168.51C183.81 175.94 170.81 183.12 164.97 183.65C159.13 184.18 153.65 186.29 126.75 175.68C94.37 162.91 73.93 129.73 72.34 127.61C70.75 125.48 59.34 110.34 59.34 94.67C59.34 79 67.57 71.29 70.49 68.11C73.4 64.92 76.85 64.12 78.98 64.12C81.11 64.12 83.22 64.12 85.08 64.19C87.35 64.29 89.86 64.4 92.25 69.7C95.08 76 101.27 91.75 102.07 93.34C102.86 94.93 103.39 96.79 102.33 98.92C101.27 101.04 100.74 102.37 99.15 104.23C97.56 106.09 95.8 108.38 94.37 109.81C92.77 111.39 91.11 113.12 92.97 116.3C94.83 119.49 101.22 129.92 110.69 138.36C122.86 149.21 133.12 152.57 136.3 154.17C139.49 155.76 141.35 155.49 143.2 153.37C145.06 151.24 151.16 144.07 153.29 140.89C155.41 137.7 157.53 138.23 160.45 139.29C163.37 140.35 179.03 148.06 182.22 149.65C185.4 151.24 187.53 152.04 188.32 153.37C189.12 154.7 189.12 161.07 186.46 168.51Z" fill="#66CC33"/>
</svg>
