<svg width="48" height="48" viewBox="0 0 48 48" fill="none" xmlns="http://www.w3.org/2000/svg">
<path d="M46.9397 7.62509C46.6644 6.17804 46.1273 4.85881 45.382 3.79877C44.6367 2.73873 43.7092 1.97486 42.6917 1.58323C38.9668 0.138428 23.9755 0.138428 23.9755 0.138428C23.9755 0.138428 8.98334 0.182161 5.25846 1.62696C4.24099 2.01861 3.31342 2.78252 2.56811 3.84262C1.8228 4.90271 1.28575 6.22199 1.01046 7.66909C-0.116225 17.0819 -0.553287 31.4248 1.0414 40.4611C1.31672 41.9081 1.85377 43.2274 2.59908 44.2874C3.34439 45.3475 4.27195 46.1113 5.2894 46.503C9.01428 47.9478 24.006 47.9478 24.006 47.9478C24.006 47.9478 38.9976 47.9478 42.7223 46.503C43.7398 46.1114 44.6674 45.3475 45.4127 44.2875C46.158 43.2274 46.6951 41.9082 46.9705 40.4611C48.1588 31.035 48.525 16.7011 46.9397 7.62536V7.62509Z" fill="black"/>
</svg>
